<?xml version="1.0" encoding="utf-8"?>
<!-- Uploaded to: SVG Repo, www.svgrepo.com, Generator: SVG Repo Mixer Tools -->
<svg width="800px" height="800px" viewBox="-4 0 20 20" xmlns="http://www.w3.org/2000/svg">
  <g id="Lager_15" data-name="Lager 15" transform="translate(-9 -5)">
    <path id="Path_17" data-name="Path 17" d="M15.091,15.681a1.97,1.97,0,0,0,.278-.732,1,1,0,0,0-.278-.679L9.574,8.538a2.116,2.116,0,0,1-.01-2.887l.028-.03a1.958,1.958,0,0,1,2.854-.008l8.267,8.613a1.077,1.077,0,0,1,.287.723,2.115,2.115,0,0,1-.287.775l-8.267,8.665a1.959,1.959,0,0,1-2.854-.012l-.028-.036a2.134,2.134,0,0,1,.01-2.9Z" fill="#040505"/>
  </g>
</svg>